<svg width="306" height="319" viewBox="0 0 306 319" fill="none" xmlns="http://www.w3.org/2000/svg">
<g opacity="0.5">
<path d="M185.496 142.905C237.641 165.683 274.45 196.66 297.224 144.514C319.999 92.3689 296.199 31.6337 244.054 8.85627C191.909 -13.9211 131.173 9.88653 108.396 62.0318C85.6187 114.177 133.356 120.128 185.496 142.905Z" stroke="white" strokeWidth="0.132766" stroke-miterlimit="10"/>
<path d="M185.852 140.157C236.717 162.374 271.375 195.444 293.592 144.578C315.809 93.7126 292.585 34.4723 241.723 12.2525C190.86 -9.96724 131.614 13.2589 109.397 64.1217C87.18 114.984 134.989 117.94 185.852 140.157Z" stroke="white" strokeWidth="0.135422" stroke-miterlimit="10"/>
<path d="M186.205 137.411C235.788 159.068 268.295 194.235 289.951 144.644C311.608 95.0533 288.972 37.3079 239.399 15.6511C189.827 -6.00576 132.055 16.6309 110.398 66.2138C88.7413 115.797 136.622 115.754 186.205 137.411Z" stroke="white" strokeWidth="0.140732" stroke-miterlimit="10"/>
<path d="M186.558 134.666C234.859 155.762 265.217 193.009 286.314 144.708C307.41 96.4079 285.36 40.1468 237.06 19.0503C188.76 -2.0463 132.496 20.0035 111.397 68.3066C90.2974 116.61 138.253 113.567 186.558 134.666Z" stroke="white" strokeWidth="0.143388" stroke-miterlimit="10"/>
<path d="M186.906 131.92C233.927 152.456 262.134 191.792 282.673 144.772C303.212 97.7514 281.744 42.9853 234.723 22.4463C187.703 1.90738 132.937 23.3837 112.398 70.3962C91.8587 117.409 139.886 111.381 186.906 131.92Z" stroke="white" strokeWidth="0.148698" stroke-miterlimit="10"/>
<path d="M187.257 129.172C232.995 149.15 259.054 190.576 279.033 144.838C299.011 99.1002 278.13 45.8238 232.389 25.8451C186.649 5.86641 133.377 26.7505 113.399 72.4885C93.42 118.227 141.519 109.193 187.257 129.172Z" stroke="white" strokeWidth="0.151354" stroke-miterlimit="10"/>
<path d="M187.62 126.426C232.079 145.845 255.987 189.357 275.406 144.902C294.824 100.446 274.516 48.6622 230.058 29.2438C185.6 9.82543 133.818 30.1227 114.4 74.5782C94.9814 119.034 143.152 107.008 187.62 126.426Z" stroke="white" strokeWidth="0.154009" stroke-miterlimit="10"/>
<path d="M187.958 123.681C231.133 142.533 252.894 188.141 271.754 144.966C290.615 101.79 270.899 51.4982 227.724 32.6453C184.548 13.7925 134.248 33.495 115.396 76.6707C96.5427 119.846 144.782 104.82 187.958 123.681Z" stroke="white" strokeWidth="0.15932" stroke-miterlimit="10"/>
<path d="M188.308 120.935C230.204 139.233 249.814 186.925 268.114 145.029C286.415 103.134 267.28 54.3393 225.392 36.0387C183.505 17.7382 134.7 36.8672 116.399 78.7629C98.0988 120.659 146.415 102.634 188.308 120.935Z" stroke="white" strokeWidth="0.161975" stroke-miterlimit="10"/>
<path d="M188.661 118.178C229.288 135.919 246.733 185.701 264.474 145.087C282.214 104.474 263.677 57.1696 223.05 39.4294C182.424 21.6891 135.133 40.2259 117.392 80.8524C99.6521 121.479 148.056 100.449 188.661 118.178Z" stroke="white" strokeWidth="0.167286" stroke-miterlimit="10"/>
<path d="M189.012 115.441C228.343 132.621 243.653 184.48 260.836 145.16C278.018 105.839 260.058 60.0272 220.724 42.8366C181.391 25.646 135.576 43.6119 118.401 82.9453C101.227 122.279 149.678 98.2639 189.012 115.441Z" stroke="white" strokeWidth="0.169941" stroke-miterlimit="10"/>
<path d="M189.362 112.695C227.413 129.315 240.576 183.274 257.195 145.223C273.815 107.172 256.444 62.8549 218.393 46.2326C180.342 29.6102 136.022 46.9867 119.402 85.0348C102.783 123.083 151.311 96.0757 189.362 112.695Z" stroke="white" strokeWidth="0.172596" stroke-miterlimit="10"/>
<path d="M189.713 109.947C226.481 126.007 237.496 182.055 253.555 145.287C269.614 108.519 252.83 65.6936 216.059 49.6315C179.288 33.5694 136.463 50.3591 120.404 87.1274C104.344 123.896 152.945 93.8878 189.713 109.947Z" stroke="white" strokeWidth="0.177907" stroke-miterlimit="10"/>
<path d="M190.063 107.202C225.552 122.693 234.415 180.844 249.917 145.353C265.419 109.862 249.224 68.5241 213.727 53.0302C178.231 37.5364 136.904 53.7312 121.404 89.2197C105.905 124.708 154.575 91.7024 190.063 107.202Z" stroke="white" strokeWidth="0.180562" stroke-miterlimit="10"/>
<path d="M190.414 104.456C224.622 119.397 231.335 179.623 246.277 145.417C261.218 111.211 245.599 71.3679 211.394 56.4264C177.188 41.4849 137.344 57.1062 122.403 91.3094C107.461 125.513 156.208 89.5144 190.414 104.456Z" stroke="white" strokeWidth="0.183217" stroke-miterlimit="10"/>
<path d="M190.764 101.716C223.69 116.097 228.255 178.412 242.636 145.489C257.017 112.565 241.985 74.2119 209.062 59.8306C176.139 45.4494 137.785 60.4812 123.404 93.4072C109.023 126.333 157.841 87.3292 190.764 101.716Z" stroke="white" strokeWidth="0.188528" stroke-miterlimit="10"/>
<path d="M191.117 98.9647C222.761 112.786 225.175 177.191 238.996 145.547C252.817 113.904 238.372 77.0397 206.728 63.232C175.085 49.4243 138.221 63.856 124.413 95.4995C110.605 127.143 159.474 85.1411 191.117 98.9647Z" stroke="white" strokeWidth="0.191184" stroke-miterlimit="10"/>
<path d="M191.468 96.2165C221.829 109.493 222.095 175.975 235.358 145.606C248.621 115.237 234.758 79.8783 204.394 66.6176C174.03 53.3569 138.667 67.215 125.406 97.5787C112.145 127.942 161.104 82.9558 191.468 96.2165Z" stroke="white" strokeWidth="0.196494" stroke-miterlimit="10"/>
<path d="M191.818 93.484C220.9 106.187 219.014 174.769 231.717 145.688C244.42 116.607 231.144 82.7353 202.063 70.0322C172.982 57.3291 139.108 70.5951 126.407 99.6762C113.707 128.757 162.737 80.7677 191.818 93.484Z" stroke="white" strokeWidth="0.199149" stroke-miterlimit="10"/>
</g>
<path d="M196.516 259.408L198.967 250.322" stroke="white" strokeWidth="0.265533" stroke-miterlimit="10"/>
<path d="M199.193 259.408L201.644 250.322" stroke="white" strokeWidth="0.265533" stroke-miterlimit="10"/>
<path d="M201.867 259.408L204.318 250.322" stroke="white" strokeWidth="0.265533" stroke-miterlimit="10"/>
<path d="M204.541 259.408L206.992 250.322" stroke="white" strokeWidth="0.265533" stroke-miterlimit="10"/>
<path d="M207.217 259.408L209.668 250.322" stroke="white" strokeWidth="0.265533" stroke-miterlimit="10"/>
<path d="M209.891 259.408L212.342 250.322" stroke="white" strokeWidth="0.265533" stroke-miterlimit="10"/>
<path d="M212.565 259.408L215.016 250.322" stroke="white" strokeWidth="0.265533" stroke-miterlimit="10"/>
<path d="M215.242 259.408L217.693 250.322" stroke="white" strokeWidth="0.265533" stroke-miterlimit="10"/>
<path d="M217.916 259.408L220.366 250.322" stroke="white" strokeWidth="0.265533" stroke-miterlimit="10"/>
<path d="M220.589 259.408L223.04 250.322" stroke="white" strokeWidth="0.265533" stroke-miterlimit="10"/>
<path d="M223.266 259.408L225.717 250.322" stroke="white" strokeWidth="0.265533" stroke-miterlimit="10"/>
<path d="M225.94 259.408L228.391 250.322" stroke="white" strokeWidth="0.265533" stroke-miterlimit="10"/>
<path d="M228.614 259.408L231.065 250.322" stroke="white" strokeWidth="0.265533" stroke-miterlimit="10"/>
<path d="M231.29 259.408L233.741 250.322" stroke="white" strokeWidth="0.265533" stroke-miterlimit="10"/>
<path d="M233.964 259.408L236.415 250.322" stroke="white" strokeWidth="0.265533" stroke-miterlimit="10"/>
<path d="M236.638 259.408L239.089 250.322" stroke="white" strokeWidth="0.265533" stroke-miterlimit="10"/>
<path d="M239.315 259.408L241.766 250.322" stroke="white" strokeWidth="0.265533" stroke-miterlimit="10"/>
<path d="M111.099 98.7683V103.474L114.898 101.108L111.099 98.7683Z" fill="white"/>
<path d="M115.939 98.7683V103.474L119.739 101.108L115.939 98.7683Z" fill="white"/>
<path d="M120.78 98.7683V103.474L124.58 101.108L120.78 98.7683Z" fill="white"/>
<path d="M125.62 98.7683V103.474L129.42 101.108L125.62 98.7683Z" fill="white"/>
<path d="M130.461 98.7683V103.474L134.264 101.108L130.461 98.7683Z" fill="white"/>
<path d="M135.302 98.7683V103.474L139.104 101.108L135.302 98.7683Z" fill="white"/>
<path d="M165.141 126.756L167.386 129L168.071 126.058L165.141 126.756Z" fill="#017CF0"/>
<path d="M214.051 203.858V190.454" stroke="url(#paint0_linear_129_6845)" strokeWidth="0.265533" stroke-miterlimit="10"/>
<path d="M214.866 203.909L216.448 190.598" stroke="url(#paint1_linear_129_6845)" strokeWidth="0.265533" stroke-miterlimit="10"/>
<path d="M215.67 204.052L218.812 191.02" stroke="url(#paint2_linear_129_6845)" strokeWidth="0.265533" stroke-miterlimit="10"/>
<path d="M216.451 204.291L221.109 191.721" stroke="url(#paint3_linear_129_6845)" strokeWidth="0.265533" stroke-miterlimit="10"/>
<path d="M217.2 204.618L223.307 192.687" stroke="url(#paint4_linear_129_6845)" strokeWidth="0.265533" stroke-miterlimit="10"/>
<path d="M217.903 205.035L225.376 193.904" stroke="url(#paint5_linear_129_6845)" strokeWidth="0.265533" stroke-miterlimit="10"/>
<path d="M218.554 205.529L227.287 195.359" stroke="url(#paint6_linear_129_6845)" strokeWidth="0.265533" stroke-miterlimit="10"/>
<path d="M219.141 206.097L229.013 197.029" stroke="url(#paint7_linear_129_6845)" strokeWidth="0.265533" stroke-miterlimit="10"/>
<path d="M219.656 206.729L230.532 198.89" stroke="url(#paint8_linear_129_6845)" strokeWidth="0.265533" stroke-miterlimit="10"/>
<path d="M220.094 207.419L231.817 200.919" stroke="url(#paint9_linear_129_6845)" strokeWidth="0.265533" stroke-miterlimit="10"/>
<path d="M220.447 208.157L232.856 203.083" stroke="url(#paint10_linear_129_6845)" strokeWidth="0.265533" stroke-miterlimit="10"/>
<path d="M220.713 208.93L233.631 205.356" stroke="url(#paint11_linear_129_6845)" strokeWidth="0.265533" stroke-miterlimit="10"/>
<path d="M220.883 209.729L234.136 207.706" stroke="url(#paint12_linear_129_6845)" strokeWidth="0.265533" stroke-miterlimit="10"/>
<path d="M220.957 210.542L234.356 210.096" stroke="url(#paint13_linear_129_6845)" strokeWidth="0.265533" stroke-miterlimit="10"/>
<path d="M220.936 211.359L234.295 212.496" stroke="url(#paint14_linear_129_6845)" strokeWidth="0.265533" stroke-miterlimit="10"/>
<path d="M220.819 212.167L233.95 214.873" stroke="url(#paint15_linear_129_6845)" strokeWidth="0.265533" stroke-miterlimit="10"/>
<path d="M220.607 212.956L233.326 217.193" stroke="url(#paint16_linear_129_6845)" strokeWidth="0.265533" stroke-miterlimit="10"/>
<path d="M220.304 213.715L232.433 219.424" stroke="url(#paint17_linear_129_6845)" strokeWidth="0.265533" stroke-miterlimit="10"/>
<path d="M219.914 214.432L231.284 221.532" stroke="url(#paint18_linear_129_6845)" strokeWidth="0.265533" stroke-miterlimit="10"/>
<path d="M219.441 215.098L229.895 223.489" stroke="url(#paint19_linear_129_6845)" strokeWidth="0.265533" stroke-miterlimit="10"/>
<path d="M218.891 215.704L228.283 225.271" stroke="url(#paint20_linear_129_6845)" strokeWidth="0.265533" stroke-miterlimit="10"/>
<path d="M218.275 216.243L226.472 226.848" stroke="url(#paint21_linear_129_6845)" strokeWidth="0.265533" stroke-miterlimit="10"/>
<path d="M217.601 216.702L224.489 228.202" stroke="url(#paint22_linear_129_6845)" strokeWidth="0.265533" stroke-miterlimit="10"/>
<path d="M216.876 217.079L222.359 229.312" stroke="url(#paint23_linear_129_6845)" strokeWidth="0.265533" stroke-miterlimit="10"/>
<path d="M216.114 217.369L220.113 230.165" stroke="url(#paint24_linear_129_6845)" strokeWidth="0.265533" stroke-miterlimit="10"/>
<path d="M215.32 217.568L217.781 230.744" stroke="url(#paint25_linear_129_6845)" strokeWidth="0.265533" stroke-miterlimit="10"/>
<path d="M214.51 217.668L215.4 231.043" stroke="url(#paint26_linear_129_6845)" strokeWidth="0.265533" stroke-miterlimit="10"/>
<path d="M213.692 217.674L212.999 231.062" stroke="url(#paint27_linear_129_6845)" strokeWidth="0.265533" stroke-miterlimit="10"/>
<path d="M212.88 217.584L210.612 230.797" stroke="url(#paint28_linear_129_6845)" strokeWidth="0.265533" stroke-miterlimit="10"/>
<path d="M212.083 217.398L208.273 230.249" stroke="url(#paint29_linear_129_6845)" strokeWidth="0.265533" stroke-miterlimit="10"/>
<path d="M211.316 217.122L206.016 229.432" stroke="url(#paint30_linear_129_6845)" strokeWidth="0.265533" stroke-miterlimit="10"/>
<path d="M210.585 216.752L203.87 228.354" stroke="url(#paint31_linear_129_6845)" strokeWidth="0.265533" stroke-miterlimit="10"/>
<path d="M209.906 216.304L201.865 227.031" stroke="url(#paint32_linear_129_6845)" strokeWidth="0.265533" stroke-miterlimit="10"/>
<path d="M209.282 215.775L200.033 225.478" stroke="url(#paint33_linear_129_6845)" strokeWidth="0.265533" stroke-miterlimit="10"/>
<path d="M208.724 215.178L198.395 223.723" stroke="url(#paint34_linear_129_6845)" strokeWidth="0.265533" stroke-miterlimit="10"/>
<path d="M208.241 214.519L196.977 221.784" stroke="url(#paint35_linear_129_6845)" strokeWidth="0.265533" stroke-miterlimit="10"/>
<path d="M207.84 213.808L195.795 219.692" stroke="url(#paint36_linear_129_6845)" strokeWidth="0.265533" stroke-miterlimit="10"/>
<path d="M207.524 213.054L194.871 217.477" stroke="url(#paint37_linear_129_6845)" strokeWidth="0.265533" stroke-miterlimit="10"/>
<path d="M207.301 212.268L194.213 215.167" stroke="url(#paint38_linear_129_6845)" strokeWidth="0.265533" stroke-miterlimit="10"/>
<path d="M207.171 211.46L193.833 212.796" stroke="url(#paint39_linear_129_6845)" strokeWidth="0.265533" stroke-miterlimit="10"/>
<path d="M207.139 210.643L193.735 210.396" stroke="url(#paint40_linear_129_6845)" strokeWidth="0.265533" stroke-miterlimit="10"/>
<path d="M207.203 209.83L193.923 208" stroke="url(#paint41_linear_129_6845)" strokeWidth="0.265533" stroke-miterlimit="10"/>
<path d="M207.362 209.028L194.391 205.646" stroke="url(#paint42_linear_129_6845)" strokeWidth="0.265533" stroke-miterlimit="10"/>
<path d="M207.614 208.25L195.132 203.362" stroke="url(#paint43_linear_129_6845)" strokeWidth="0.265533" stroke-miterlimit="10"/>
<path d="M207.957 207.509L196.138 201.182" stroke="url(#paint44_linear_129_6845)" strokeWidth="0.265533" stroke-miterlimit="10"/>
<path d="M208.384 206.813L197.396 199.134" stroke="url(#paint45_linear_129_6845)" strokeWidth="0.265533" stroke-miterlimit="10"/>
<path d="M208.891 206.171L198.886 197.252" stroke="url(#paint46_linear_129_6845)" strokeWidth="0.265533" stroke-miterlimit="10"/>
<path d="M209.47 205.595L200.585 195.555" stroke="url(#paint47_linear_129_6845)" strokeWidth="0.265533" stroke-miterlimit="10"/>
<path d="M210.113 205.09L202.476 194.073" stroke="url(#paint48_linear_129_6845)" strokeWidth="0.265533" stroke-miterlimit="10"/>
<path d="M210.811 204.666L204.526 192.825" stroke="url(#paint49_linear_129_6845)" strokeWidth="0.265533" stroke-miterlimit="10"/>
<path d="M211.552 204.326L206.711 191.827" stroke="url(#paint50_linear_129_6845)" strokeWidth="0.265533" stroke-miterlimit="10"/>
<path d="M212.33 204.076L208.998 191.092" stroke="url(#paint51_linear_129_6845)" strokeWidth="0.265533" stroke-miterlimit="10"/>
<path d="M213.132 203.919L211.355 190.635" stroke="url(#paint52_linear_129_6845)" strokeWidth="0.265533" stroke-miterlimit="10"/>
<g opacity="0.6">
<path d="M139.796 201.03C162.021 251.908 192.266 287.822 141.369 310.046C90.4711 332.271 31.2143 309.04 9.00259 258.168C-13.2091 207.296 10.0092 148.023 60.8874 125.802C111.766 103.581 117.572 150.161 139.796 201.03Z" stroke="white" strokeWidth="0.319547" stroke-miterlimit="10"/>
<path d="M137.118 201.372C158.796 251.001 191.061 284.815 141.432 306.503C91.8035 328.19 33.9975 305.525 12.3162 255.893C-9.36505 206.261 13.2972 148.458 62.9292 126.796C112.561 105.134 115.44 151.759 137.118 201.372Z" stroke="white" strokeWidth="0.306765" stroke-miterlimit="10"/>
<path d="M134.428 201.713C155.569 250.093 189.872 281.814 141.493 302.943C93.1137 324.071 36.7648 301.984 15.6331 253.608C-5.4985 205.232 16.5918 148.879 64.968 127.748C113.344 106.616 113.306 153.334 134.428 201.713Z" stroke="white" strokeWidth="0.293983" stroke-miterlimit="10"/>
<path d="M131.76 202.055C152.345 249.185 188.687 278.804 141.557 299.389C94.4271 319.974 39.5226 298.459 18.9502 251.333C-1.62226 204.206 19.88 149.308 67.01 128.722C114.14 108.137 111.171 154.928 131.76 202.055Z" stroke="white" strokeWidth="0.281201" stroke-miterlimit="10"/>
<path d="M129.079 202.397C149.127 248.278 187.498 275.8 141.621 295.839C95.7437 315.878 42.3058 294.935 22.2671 249.054C2.22827 203.174 23.1714 149.739 69.0487 129.71C114.926 109.681 109.04 156.52 129.079 202.397Z" stroke="white" strokeWidth="0.265224" stroke-miterlimit="10"/>
<path d="M126.398 202.739C145.89 247.37 186.313 272.796 141.685 292.289C97.057 311.781 45.0731 291.4 25.5807 246.779C6.08836 202.157 26.4627 150.161 71.0906 130.668C115.719 111.176 106.905 158.111 126.398 202.739Z" stroke="white" strokeWidth="0.252442" stroke-miterlimit="10"/>
<path d="M123.72 203.084C142.666 246.462 185.124 269.789 141.746 288.722C98.3671 307.656 47.8307 287.885 28.8944 244.503C9.95804 201.122 29.754 150.598 73.1293 131.652C116.505 112.706 104.771 159.705 123.72 203.084Z" stroke="white" strokeWidth="0.23966" stroke-miterlimit="10"/>
<path d="M121.039 203.426C139.442 245.552 183.939 266.786 141.81 285.185C99.6805 303.585 50.6141 284.355 32.205 242.226C13.7959 200.096 33.0358 151.03 75.1649 132.621C117.294 114.212 102.64 161.297 121.039 203.426Z" stroke="white" strokeWidth="0.226878" stroke-miterlimit="10"/>
<path d="M118.361 203.768C136.217 244.645 182.75 263.779 141.873 281.635C100.997 299.492 53.3813 280.827 35.5282 239.954C17.6752 199.08 36.3271 151.458 77.2291 133.605C118.131 115.752 100.505 162.892 118.361 203.768Z" stroke="white" strokeWidth="0.214096" stroke-miterlimit="10"/>
<path d="M115.68 204.11C132.99 243.734 181.561 260.775 141.934 278.085C102.307 295.395 56.1389 277.302 38.8418 237.672C21.5448 198.042 39.6247 151.89 79.2517 134.58C118.879 117.27 98.3702 164.483 115.68 204.11Z" stroke="white" strokeWidth="0.201315" stroke-miterlimit="10"/>
<path d="M113.018 204.452C129.766 242.83 180.376 257.768 141.998 274.532C103.621 291.295 58.9159 273.775 42.1589 235.397C25.4018 197.019 42.9162 152.315 81.2938 135.558C119.671 118.801 96.239 166.074 113.018 204.452Z" stroke="white" strokeWidth="0.185337" stroke-miterlimit="10"/>
<path d="M110.321 204.803C126.538 241.932 179.187 254.774 142.062 270.991C104.937 287.208 61.6895 270.256 45.4725 233.131C29.2555 196.006 46.2075 152.759 83.3324 136.542C120.457 120.325 94.1044 167.669 110.321 204.803Z" stroke="white" strokeWidth="0.172555" stroke-miterlimit="10"/>
<path d="M107.644 205.123C123.301 241.002 178.001 251.745 142.123 267.434C106.244 283.124 64.4472 266.722 48.7895 230.843C33.1317 194.964 49.4988 153.193 85.3744 137.51C121.25 121.827 91.9698 169.26 107.644 205.123Z" stroke="white" strokeWidth="0.159773" stroke-miterlimit="10"/>
<path d="M104.963 205.481C120.087 240.107 176.813 248.754 142.187 263.878C107.561 279.002 67.2306 263.194 52.1032 228.568C36.9759 193.942 52.7902 153.609 87.4163 138.485C122.042 123.361 89.8385 170.855 104.963 205.481Z" stroke="white" strokeWidth="0.146992" stroke-miterlimit="10"/>
<path d="M102.282 205.823C116.853 239.199 175.627 245.75 142.25 260.328C108.874 274.905 69.9977 259.666 55.42 226.293C40.8423 192.919 56.0783 154.04 89.4549 139.462C122.832 124.885 87.7038 172.446 102.282 205.823Z" stroke="white" strokeWidth="0.13421" stroke-miterlimit="10"/>
<path d="M99.5974 206.165C113.629 238.289 174.432 242.743 142.308 256.778C110.184 270.812 72.7619 256.138 58.7305 224.014C44.6992 191.89 59.3696 154.471 91.4905 140.437C123.611 126.402 85.5693 174.037 99.5974 206.165Z" stroke="white" strokeWidth="0.121428" stroke-miterlimit="10"/>
<path d="M96.9227 206.507C110.411 237.381 173.253 239.74 142.375 253.224C111.497 266.709 75.5386 252.614 62.0505 221.74C48.5624 190.865 62.6609 154.9 93.5259 141.415C124.391 127.93 83.4378 175.632 96.9227 206.507Z" stroke="white" strokeWidth="0.10545" stroke-miterlimit="10"/>
<path d="M94.2449 206.849C107.183 236.474 172.064 236.733 142.439 249.668C112.814 262.603 78.3059 249.083 65.3675 219.458C52.429 189.833 65.9522 155.325 95.5774 142.383C125.203 129.442 81.3033 177.223 94.2449 206.849Z" stroke="white" strokeWidth="0.0926686" stroke-miterlimit="10"/>
<path d="M91.5639 207.19C103.959 235.566 170.875 233.713 142.503 246.124C128.877 252.076 113.444 252.371 99.5999 246.944C85.7559 241.518 74.6347 230.814 68.6828 217.187C62.7308 203.561 62.4357 188.128 67.8624 174.284C73.2891 160.44 83.9929 149.319 97.6193 143.367C125.992 130.988 79.1687 178.814 91.5639 207.19Z" stroke="white" strokeWidth="0.0798867" stroke-miterlimit="10"/>
</g>
<g opacity="0.5">
<path style="mix-blend-mode:lighten" opacity="0.34" d="M169.204 197.905C184.255 197.905 196.456 185.704 196.456 170.653C196.456 155.602 184.255 143.401 169.204 143.401C154.154 143.401 141.953 155.602 141.953 170.653C141.953 185.704 154.154 197.905 169.204 197.905Z" fill="url(#paint53_radial_129_6845)"/>
<path style="mix-blend-mode:lighten" opacity="0.34" d="M181.665 179.118C186.349 172.234 184.565 162.856 177.681 158.172C170.796 153.488 161.418 155.272 156.734 162.156C152.05 169.041 153.834 178.419 160.718 183.103C167.603 187.787 176.981 186.003 181.665 179.118Z" fill="url(#paint54_radial_129_6845)"/>
</g>
<path d="M142.648 164.996C149.582 164.996 155.203 159.375 155.203 152.441C155.203 145.508 149.582 139.887 142.648 139.887C135.715 139.887 130.094 145.508 130.094 152.441C130.094 159.375 135.715 164.996 142.648 164.996Z" fill="url(#paint55_linear_129_6845)"/>
<path d="M108.28 127.856H106.886V126.462H106.443V127.856H105.049V128.299H106.443V129.693H106.886V128.299H108.28V127.856Z" fill="#01DAD9"/>
<circle cx="169.204" cy="170.653" r="60.0075" stroke="url(#paint56_linear_129_6845)" strokeWidth="0.531065" stroke-dasharray="2.12 2.12"/>
<path d="M114.141 248.36C115.33 240.786 110.153 233.682 102.579 232.493C95.0052 231.305 87.9014 236.481 86.7127 244.055C85.5239 251.629 90.7002 258.733 98.2743 259.922C105.848 261.111 112.952 255.934 114.141 248.36Z" fill="#919191"/>
<path d="M107.896 214.027H106.502V212.633H106.058V214.027H104.664V214.47H106.058V215.864H106.502V214.47H107.896V214.027Z" fill="#01DAD9"/>
<defs>
<linearGradient id="paint0_linear_129_6845" x1="214.551" y1="203.858" x2="214.551" y2="193.929" gradientUnits="userSpaceOnUse">
<stop stop-color="#7928CA"/>
<stop offset="1" stop-color="#FF0080"/>
</linearGradient>
<linearGradient id="paint1_linear_129_6845" x1="215.657" y1="203.909" x2="215.657" y2="194.049" gradientUnits="userSpaceOnUse">
<stop stop-color="#7928CA"/>
<stop offset="1" stop-color="#FF0080"/>
</linearGradient>
<linearGradient id="paint2_linear_129_6845" x1="217.241" y1="204.052" x2="217.241" y2="194.399" gradientUnits="userSpaceOnUse">
<stop stop-color="#7928CA"/>
<stop offset="1" stop-color="#FF0080"/>
</linearGradient>
<linearGradient id="paint3_linear_129_6845" x1="218.78" y1="204.291" x2="218.78" y2="194.98" gradientUnits="userSpaceOnUse">
<stop stop-color="#7928CA"/>
<stop offset="1" stop-color="#FF0080"/>
</linearGradient>
<linearGradient id="paint4_linear_129_6845" x1="220.254" y1="204.618" x2="220.254" y2="195.78" gradientUnits="userSpaceOnUse">
<stop stop-color="#7928CA"/>
<stop offset="1" stop-color="#FF0080"/>
</linearGradient>
<linearGradient id="paint5_linear_129_6845" x1="221.639" y1="205.035" x2="221.639" y2="196.789" gradientUnits="userSpaceOnUse">
<stop stop-color="#7928CA"/>
<stop offset="1" stop-color="#FF0080"/>
</linearGradient>
<linearGradient id="paint6_linear_129_6845" x1="222.921" y1="205.529" x2="222.921" y2="197.995" gradientUnits="userSpaceOnUse">
<stop stop-color="#7928CA"/>
<stop offset="1" stop-color="#FF0080"/>
</linearGradient>
<linearGradient id="paint7_linear_129_6845" x1="224.077" y1="206.097" x2="224.077" y2="199.38" gradientUnits="userSpaceOnUse">
<stop stop-color="#7928CA"/>
<stop offset="1" stop-color="#FF0080"/>
</linearGradient>
<linearGradient id="paint8_linear_129_6845" x1="225.094" y1="206.729" x2="225.094" y2="200.922" gradientUnits="userSpaceOnUse">
<stop stop-color="#7928CA"/>
<stop offset="1" stop-color="#FF0080"/>
</linearGradient>
<linearGradient id="paint9_linear_129_6845" x1="225.956" y1="207.419" x2="225.956" y2="202.604" gradientUnits="userSpaceOnUse">
<stop stop-color="#7928CA"/>
<stop offset="1" stop-color="#FF0080"/>
</linearGradient>
<linearGradient id="paint10_linear_129_6845" x1="226.652" y1="208.157" x2="226.652" y2="204.398" gradientUnits="userSpaceOnUse">
<stop stop-color="#7928CA"/>
<stop offset="1" stop-color="#FF0080"/>
</linearGradient>
<linearGradient id="paint11_linear_129_6845" x1="227.172" y1="208.93" x2="227.172" y2="206.283" gradientUnits="userSpaceOnUse">
<stop stop-color="#7928CA"/>
<stop offset="1" stop-color="#FF0080"/>
</linearGradient>
<linearGradient id="paint12_linear_129_6845" x1="227.509" y1="209.729" x2="227.509" y2="208.23" gradientUnits="userSpaceOnUse">
<stop stop-color="#7928CA"/>
<stop offset="1" stop-color="#FF0080"/>
</linearGradient>
<linearGradient id="paint13_linear_129_6845" x1="227.657" y1="210.542" x2="227.657" y2="210.211" gradientUnits="userSpaceOnUse">
<stop stop-color="#7928CA"/>
<stop offset="1" stop-color="#FF0080"/>
</linearGradient>
<linearGradient id="paint14_linear_129_6845" x1="227.616" y1="212.496" x2="227.616" y2="211.654" gradientUnits="userSpaceOnUse">
<stop stop-color="#7928CA"/>
<stop offset="1" stop-color="#FF0080"/>
</linearGradient>
<linearGradient id="paint15_linear_129_6845" x1="227.384" y1="214.873" x2="227.384" y2="212.868" gradientUnits="userSpaceOnUse">
<stop stop-color="#7928CA"/>
<stop offset="1" stop-color="#FF0080"/>
</linearGradient>
<linearGradient id="paint16_linear_129_6845" x1="226.966" y1="217.193" x2="226.966" y2="214.054" gradientUnits="userSpaceOnUse">
<stop stop-color="#7928CA"/>
<stop offset="1" stop-color="#FF0080"/>
</linearGradient>
<linearGradient id="paint17_linear_129_6845" x1="226.369" y1="219.424" x2="226.369" y2="215.195" gradientUnits="userSpaceOnUse">
<stop stop-color="#7928CA"/>
<stop offset="1" stop-color="#FF0080"/>
</linearGradient>
<linearGradient id="paint18_linear_129_6845" x1="225.599" y1="221.532" x2="225.599" y2="216.273" gradientUnits="userSpaceOnUse">
<stop stop-color="#7928CA"/>
<stop offset="1" stop-color="#FF0080"/>
</linearGradient>
<linearGradient id="paint19_linear_129_6845" x1="224.668" y1="223.489" x2="224.668" y2="217.274" gradientUnits="userSpaceOnUse">
<stop stop-color="#7928CA"/>
<stop offset="1" stop-color="#FF0080"/>
</linearGradient>
<linearGradient id="paint20_linear_129_6845" x1="223.587" y1="225.271" x2="223.587" y2="218.184" gradientUnits="userSpaceOnUse">
<stop stop-color="#7928CA"/>
<stop offset="1" stop-color="#FF0080"/>
</linearGradient>
<linearGradient id="paint21_linear_129_6845" x1="222.374" y1="226.848" x2="222.374" y2="218.992" gradientUnits="userSpaceOnUse">
<stop stop-color="#7928CA"/>
<stop offset="1" stop-color="#FF0080"/>
</linearGradient>
<linearGradient id="paint22_linear_129_6845" x1="221.045" y1="228.202" x2="221.045" y2="219.684" gradientUnits="userSpaceOnUse">
<stop stop-color="#7928CA"/>
<stop offset="1" stop-color="#FF0080"/>
</linearGradient>
<linearGradient id="paint23_linear_129_6845" x1="219.618" y1="229.312" x2="219.618" y2="220.251" gradientUnits="userSpaceOnUse">
<stop stop-color="#7928CA"/>
<stop offset="1" stop-color="#FF0080"/>
</linearGradient>
<linearGradient id="paint24_linear_129_6845" x1="218.113" y1="230.165" x2="218.113" y2="220.686" gradientUnits="userSpaceOnUse">
<stop stop-color="#7928CA"/>
<stop offset="1" stop-color="#FF0080"/>
</linearGradient>
<linearGradient id="paint25_linear_129_6845" x1="216.551" y1="230.744" x2="216.551" y2="220.984" gradientUnits="userSpaceOnUse">
<stop stop-color="#7928CA"/>
<stop offset="1" stop-color="#FF0080"/>
</linearGradient>
<linearGradient id="paint26_linear_129_6845" x1="214.955" y1="231.043" x2="214.955" y2="221.136" gradientUnits="userSpaceOnUse">
<stop stop-color="#7928CA"/>
<stop offset="1" stop-color="#FF0080"/>
</linearGradient>
<linearGradient id="paint27_linear_129_6845" x1="213.346" y1="231.062" x2="213.346" y2="221.145" gradientUnits="userSpaceOnUse">
<stop stop-color="#7928CA"/>
<stop offset="1" stop-color="#FF0080"/>
</linearGradient>
<linearGradient id="paint28_linear_129_6845" x1="211.746" y1="230.797" x2="211.746" y2="221.009" gradientUnits="userSpaceOnUse">
<stop stop-color="#7928CA"/>
<stop offset="1" stop-color="#FF0080"/>
</linearGradient>
<linearGradient id="paint29_linear_129_6845" x1="210.178" y1="230.249" x2="210.178" y2="220.73" gradientUnits="userSpaceOnUse">
<stop stop-color="#7928CA"/>
<stop offset="1" stop-color="#FF0080"/>
</linearGradient>
<linearGradient id="paint30_linear_129_6845" x1="208.666" y1="229.432" x2="208.666" y2="220.313" gradientUnits="userSpaceOnUse">
<stop stop-color="#7928CA"/>
<stop offset="1" stop-color="#FF0080"/>
</linearGradient>
<linearGradient id="paint31_linear_129_6845" x1="207.228" y1="228.354" x2="207.228" y2="219.76" gradientUnits="userSpaceOnUse">
<stop stop-color="#7928CA"/>
<stop offset="1" stop-color="#FF0080"/>
</linearGradient>
<linearGradient id="paint32_linear_129_6845" x1="205.886" y1="227.031" x2="205.886" y2="219.085" gradientUnits="userSpaceOnUse">
<stop stop-color="#7928CA"/>
<stop offset="1" stop-color="#FF0080"/>
</linearGradient>
<linearGradient id="paint33_linear_129_6845" x1="204.657" y1="225.478" x2="204.657" y2="218.291" gradientUnits="userSpaceOnUse">
<stop stop-color="#7928CA"/>
<stop offset="1" stop-color="#FF0080"/>
</linearGradient>
<linearGradient id="paint34_linear_129_6845" x1="203.559" y1="223.723" x2="203.559" y2="217.393" gradientUnits="userSpaceOnUse">
<stop stop-color="#7928CA"/>
<stop offset="1" stop-color="#FF0080"/>
</linearGradient>
<linearGradient id="paint35_linear_129_6845" x1="202.609" y1="221.784" x2="202.609" y2="216.403" gradientUnits="userSpaceOnUse">
<stop stop-color="#7928CA"/>
<stop offset="1" stop-color="#FF0080"/>
</linearGradient>
<linearGradient id="paint36_linear_129_6845" x1="201.818" y1="219.692" x2="201.818" y2="215.333" gradientUnits="userSpaceOnUse">
<stop stop-color="#7928CA"/>
<stop offset="1" stop-color="#FF0080"/>
</linearGradient>
<linearGradient id="paint37_linear_129_6845" x1="201.198" y1="217.477" x2="201.198" y2="214.201" gradientUnits="userSpaceOnUse">
<stop stop-color="#7928CA"/>
<stop offset="1" stop-color="#FF0080"/>
</linearGradient>
<linearGradient id="paint38_linear_129_6845" x1="200.757" y1="215.167" x2="200.757" y2="213.019" gradientUnits="userSpaceOnUse">
<stop stop-color="#7928CA"/>
<stop offset="1" stop-color="#FF0080"/>
</linearGradient>
<linearGradient id="paint39_linear_129_6845" x1="200.502" y1="212.796" x2="200.502" y2="211.806" gradientUnits="userSpaceOnUse">
<stop stop-color="#7928CA"/>
<stop offset="1" stop-color="#FF0080"/>
</linearGradient>
<linearGradient id="paint40_linear_129_6845" x1="200.437" y1="210.643" x2="200.437" y2="210.46" gradientUnits="userSpaceOnUse">
<stop stop-color="#7928CA"/>
<stop offset="1" stop-color="#FF0080"/>
</linearGradient>
<linearGradient id="paint41_linear_129_6845" x1="200.563" y1="209.83" x2="200.563" y2="208.475" gradientUnits="userSpaceOnUse">
<stop stop-color="#7928CA"/>
<stop offset="1" stop-color="#FF0080"/>
</linearGradient>
<linearGradient id="paint42_linear_129_6845" x1="200.876" y1="209.028" x2="200.876" y2="206.523" gradientUnits="userSpaceOnUse">
<stop stop-color="#7928CA"/>
<stop offset="1" stop-color="#FF0080"/>
</linearGradient>
<linearGradient id="paint43_linear_129_6845" x1="201.373" y1="208.25" x2="201.373" y2="204.629" gradientUnits="userSpaceOnUse">
<stop stop-color="#7928CA"/>
<stop offset="1" stop-color="#FF0080"/>
</linearGradient>
<linearGradient id="paint44_linear_129_6845" x1="202.047" y1="207.509" x2="202.047" y2="202.822" gradientUnits="userSpaceOnUse">
<stop stop-color="#7928CA"/>
<stop offset="1" stop-color="#FF0080"/>
</linearGradient>
<linearGradient id="paint45_linear_129_6845" x1="202.89" y1="206.813" x2="202.89" y2="201.125" gradientUnits="userSpaceOnUse">
<stop stop-color="#7928CA"/>
<stop offset="1" stop-color="#FF0080"/>
</linearGradient>
<linearGradient id="paint46_linear_129_6845" x1="203.889" y1="206.171" x2="203.889" y2="199.564" gradientUnits="userSpaceOnUse">
<stop stop-color="#7928CA"/>
<stop offset="1" stop-color="#FF0080"/>
</linearGradient>
<linearGradient id="paint47_linear_129_6845" x1="205.028" y1="205.595" x2="205.028" y2="198.158" gradientUnits="userSpaceOnUse">
<stop stop-color="#7928CA"/>
<stop offset="1" stop-color="#FF0080"/>
</linearGradient>
<linearGradient id="paint48_linear_129_6845" x1="206.294" y1="205.09" x2="206.294" y2="196.929" gradientUnits="userSpaceOnUse">
<stop stop-color="#7928CA"/>
<stop offset="1" stop-color="#FF0080"/>
</linearGradient>
<linearGradient id="paint49_linear_129_6845" x1="207.669" y1="204.666" x2="207.669" y2="195.895" gradientUnits="userSpaceOnUse">
<stop stop-color="#7928CA"/>
<stop offset="1" stop-color="#FF0080"/>
</linearGradient>
<linearGradient id="paint50_linear_129_6845" x1="209.132" y1="204.326" x2="209.132" y2="195.067" gradientUnits="userSpaceOnUse">
<stop stop-color="#7928CA"/>
<stop offset="1" stop-color="#FF0080"/>
</linearGradient>
<linearGradient id="paint51_linear_129_6845" x1="210.664" y1="204.076" x2="210.664" y2="194.458" gradientUnits="userSpaceOnUse">
<stop stop-color="#7928CA"/>
<stop offset="1" stop-color="#FF0080"/>
</linearGradient>
<linearGradient id="paint52_linear_129_6845" x1="212.244" y1="203.919" x2="212.244" y2="194.079" gradientUnits="userSpaceOnUse">
<stop stop-color="#7928CA"/>
<stop offset="1" stop-color="#FF0080"/>
</linearGradient>
<radialGradient id="paint53_radial_129_6845" cx="0" cy="0" r="1" gradientUnits="userSpaceOnUse" gradientTransform="translate(169.21 170.64) rotate(39.75) scale(27.2516)">
<stop stop-color="white"/>
<stop offset="0.43"/>
<stop offset="0.63" stop-color="#020202"/>
<stop offset="0.71" stop-color="#090909"/>
<stop offset="0.76" stop-color="#151515"/>
<stop offset="0.81" stop-color="#262626"/>
<stop offset="0.85" stop-color="#3C3C3C"/>
<stop offset="0.88" stop-color="#585858"/>
<stop offset="0.92" stop-color="#797979"/>
<stop offset="0.95" stop-color="#9F9F9F"/>
<stop offset="0.97" stop-color="#CBCBCB"/>
<stop offset="1" stop-color="white"/>
</radialGradient>
<radialGradient id="paint54_radial_129_6845" cx="0" cy="0" r="1" gradientUnits="userSpaceOnUse" gradientTransform="translate(169.2 170.638) rotate(39.75) scale(15.0769)">
<stop stop-color="white"/>
<stop offset="0.43"/>
<stop offset="0.63" stop-color="#020202"/>
<stop offset="0.71" stop-color="#090909"/>
<stop offset="0.76" stop-color="#151515"/>
<stop offset="0.81" stop-color="#262626"/>
<stop offset="0.85" stop-color="#3C3C3C"/>
<stop offset="0.88" stop-color="#585858"/>
<stop offset="0.92" stop-color="#797979"/>
<stop offset="0.95" stop-color="#9F9F9F"/>
<stop offset="0.97" stop-color="#CBCBCB"/>
<stop offset="1" stop-color="white"/>
</radialGradient>
<linearGradient id="paint55_linear_129_6845" x1="142.61" y1="145.689" x2="142.61" y2="157.699" gradientUnits="userSpaceOnUse">
<stop stop-color="#00DFD8"/>
<stop offset="1" stop-color="#007CF0"/>
</linearGradient>
<linearGradient id="paint56_linear_129_6845" x1="169.204" y1="230.926" x2="169.204" y2="141.633" gradientUnits="userSpaceOnUse">
<stop stop-color="#7928CA"/>
<stop offset="1" stop-color="#FF0080"/>
</linearGradient>
</defs>
</svg>
